<?xml version="1.0" standalone="no"?>
<!DOCTYPE svg PUBLIC "-//W3C//DTD SVG 20010904//EN"
 "http://www.w3.org/TR/2001/REC-SVG-20010904/DTD/svg10.dtd">
<svg version="1.0" xmlns="http://www.w3.org/2000/svg"
 width="32.000000pt" height="32.000000pt" viewBox="0 0 32.000000 32.000000"
 preserveAspectRatio="xMidYMid meet">
<metadata>
Created by potrace 1.16, written by Peter Selinger 2001-2019
</metadata>
<g transform="translate(0.000000,32.000000) scale(0.006250,-0.006250)"
fill="#000000" stroke="none">
<path d="M2481 5089 c-74 -51 -96 -117 -66 -195 30 -79 62 -92 255 -104 192
-12 303 -28 461 -69 404 -105 746 -305 1045 -613 89 -91 264 -310 264 -330 0
-8 -17 1 -265 138 -71 40 -132 70 -134 68 -2 -2 12 -21 31 -42 19 -22 44 -61
54 -88 18 -47 19 -97 19 -1319 l0 -1270 -28 -56 c-57 -116 -173 -185 -297
-176 -119 8 -210 69 -262 175 l-33 67 -5 587 -5 587 -305 -622 c-332 -677
-342 -694 -443 -737 -124 -54 -248 -30 -343 65 -47 47 -82 112 -360 666 l-309
614 -5 -585 -5 -585 -26 -56 c-51 -108 -156 -180 -270 -182 -32 -1 -59 -4 -59
-7 0 -3 265 -162 588 -353 l587 -349 -105 7 c-470 29 -867 173 -1240 449 -114
84 -343 310 -427 421 -260 345 -410 723 -454 1144 -15 141 -6 429 16 561 38
230 97 413 199 625 81 167 199 349 302 469 109 124 119 141 119 205 0 94 -60
153 -155 153 -63 0 -94 -18 -166 -99 -542 -610 -759 -1428 -589 -2230 206
-977 999 -1764 1975 -1962 195 -39 272 -46 520 -46 248 0 325 7 520 46 901
183 1655 872 1923 1759 112 370 137 800 71 1200 -137 825 -675 1526 -1429
1862 -312 139 -627 213 -965 224 -162 6 -166 6 -199 -17z"/>
<path d="M1842 5003 c-47 -23 -75 -67 -79 -127 -13 -166 189 -230 291 -94 27
37 27 113 0 159 -43 73 -135 100 -212 62z"/>
<path d="M1275 4759 c-36 -11 -53 -24 -83 -63 -31 -41 -31 -130 1 -176 46 -68
136 -89 207 -49 70 40 101 139 65 209 -33 65 -122 101 -190 79z"/>
<path d="M1697 3918 c6 -7 207 -402 448 -878 241 -476 453 -892 471 -924 l32
-59 232 463 c189 379 229 465 218 475 -26 24 -1390 935 -1400 935 -7 0 -7 -4
-1 -12z"/>
</g>
</svg>
