<?xml version="1.0" standalone="no"?>
<!DOCTYPE svg PUBLIC "-//W3C//DTD SVG 20010904//EN"
 "http://www.w3.org/TR/2001/REC-SVG-20010904/DTD/svg10.dtd">
<svg version="1.0" xmlns="http://www.w3.org/2000/svg"
 width="32.000000pt" height="32.000000pt" viewBox="0 0 32.000000 32.000000"
 preserveAspectRatio="xMidYMid meet">
<metadata>
Created by potrace 1.16, written by Peter Selinger 2001-2019
</metadata>
<g transform="translate(0.000000,32.000000) scale(0.017778,-0.017778)"
fill="#000000" stroke="none">
<path d="M942 1702 c-39 -31 -68 -60 -66 -64 3 -4 163 -136 357 -294 194 -158
360 -294 370 -302 16 -14 17 -9 17 104 l0 119 -276 225 c-152 124 -288 235
-304 247 l-27 22 -71 -57z"/>
<path d="M432 1523 l-231 -188 -1 -76 0 -75 449 -367 c247 -202 453 -367 456
-367 4 0 26 16 50 36 38 31 44 40 43 73 0 21 -3 43 -7 48 -3 5 -168 142 -366
303 -198 161 -375 306 -392 321 l-33 28 126 103 c69 57 129 104 133 106 5 2
124 -92 266 -208 141 -115 261 -210 265 -210 10 0 12 212 3 225 -6 8 -447 370
-519 427 -8 6 -90 -55 -242 -179z"/>
<path d="M643 1312 c-35 -31 -42 -43 -41 -73 0 -20 3 -40 7 -46 3 -5 168 -142
366 -303 198 -161 375 -306 392 -321 l33 -28 -126 -103 c-69 -57 -129 -104
-133 -106 -5 -2 -125 92 -266 207 -141 116 -261 211 -265 211 -4 0 -8 -49 -9
-110 -2 -108 -1 -109 26 -134 148 -129 509 -414 519 -408 6 4 111 88 232 187
l221 180 1 76 0 75 -449 367 c-247 202 -453 367 -458 367 -4 0 -27 -17 -50
-38z"/>
<path d="M180 654 l0 -119 301 -245 c166 -135 305 -244 310 -242 19 5 137 107
133 114 -3 4 -163 136 -357 294 -194 158 -360 294 -369 302 -17 14 -18 9 -18
-104z"/>
</g>
</svg>
